
<global>
amp_veltrack=0
ampeg_release=0.85
</global>

<group>
group_label=RR1
seq_length=4

<region>
hivel=25
key=E4
lovel=0
offset=13260
sample=Toms_Small_Hit_P_D4_RR1.opus
volume=6
</region>

<region>
hivel=51
key=E4
lovel=26
offset=10366
sample=Toms_Small_Hit_MP_D4_RR1.opus
volume=6
</region>

<region>
hivel=25
key=D#4
lovel=0
offset=13361
sample=Toms_Medium_Hit_P_D4_RR1.opus
volume=6
</region>

<region>
hivel=25
key=D4
lovel=0
offset=14078
sample=Toms_Large_Hit_P_D4_RR1.opus
volume=6
</region>

<region>
hivel=51
key=D4
lovel=26
offset=441
sample=Toms_Large_Hit_MP_D4_RR1.opus
volume=6
</region>

<region>
hivel=77
key=E4
lovel=52
offset=452
sample=Toms_Small_Hit_MF_D4_RR1.opus
</region>

<region>
hivel=127
key=E4
lovel=104
offset=443
sample=Toms_Small_Hit_FF_D4_RR1.opus
</region>

<region>
hivel=103
key=E4
lovel=78
offset=553
sample=Toms_Small_Hit_F_D4_RR1.opus
</region>

<region>
hivel=51
key=D#4
lovel=26
offset=480
sample=Toms_Medium_Hit_MP_D4_RR1.opus
volume=6
</region>

<region>
hivel=77
key=D#4
lovel=52
offset=481
sample=Toms_Medium_Hit_MF_D4_RR1.opus
</region>

<region>
hivel=127
key=D#4
lovel=104
offset=554
sample=Toms_Medium_Hit_FF_D4_RR1.opus
</region>

<region>
hivel=103
key=D#4
lovel=78
offset=481
sample=Toms_Medium_Hit_F_D4_RR1.opus
</region>

<region>
hivel=77
key=D4
lovel=52
offset=582
sample=Toms_Large_Hit_MF_D4_RR1.opus
</region>

<region>
hivel=127
key=D4
lovel=104
offset=596
sample=Toms_Large_Hit_FF_D4_RR1.opus
</region>

<region>
hivel=103
key=D4
lovel=78
offset=537
sample=Toms_Large_Hit_F_D4_RR1.opus
</region>

<region>
hivel=25
key=C#4
lovel=0
offset=14375
sample=Toms_Small_Rim_P_D4_RR1.opus
volume=6
</region>

<region>
hivel=51
key=C#4
lovel=26
offset=14874
sample=Toms_Small_Rim_MP_D4_RR1.opus
volume=6
</region>

<region>
hivel=77
key=C#4
lovel=52
offset=13927
sample=Toms_Small_Rim_MF_D4_RR1.opus
</region>

<region>
hivel=127
key=C#4
lovel=104
offset=9273
sample=Toms_Small_Rim_FF_D4_RR1.opus
</region>

<region>
hivel=103
key=C#4
lovel=78
offset=13880
sample=Toms_Small_Rim_F_D4_RR1.opus
</region>

<region>
hikey=C4
hivel=25
lokey=C4
lovel=0
offset=14440
sample=Toms_Medium_Rim_P_D4_RR1.opus
volume=6
</region>

<region>
hikey=C4
hivel=51
lokey=C4
lovel=26
offset=10867
sample=Toms_Medium_Rim_MP_D4_RR1.opus
volume=6
</region>

<region>
hikey=C4
hivel=103
lokey=C4
lovel=78
offset=483
sample=Toms_Medium_Rim_F_D4_RR1.opus
</region>

<region>
hivel=25
key=B3
lovel=0
offset=14945
sample=Toms_Large_Rim_P_D4_RR1.opus
volume=6
</region>

<region>
hivel=51
key=B3
lovel=26
offset=15470
sample=Toms_Large_Rim_MP_D4_RR1.opus
volume=6
</region>

<region>
hivel=77
key=B3
lovel=52
offset=11847
sample=Toms_Large_Rim_MF_D4_RR1.opus
</region>

<region>
hivel=103
key=B3
lovel=78
offset=13933
sample=Toms_Large_Rim_F_D4_RR1.opus
</region>

<region>
hikey=C4
hivel=77
lokey=C4
lovel=52
offset=448
sample=Toms_Medium_Rim_MF_D4_RR1.opus
</region>

<region>
hikey=C4
hivel=127
lokey=C4
lovel=104
offset=482
sample=Toms_Medium_Rim_FF_D4_RR1.opus
</region>

<region>
hivel=127
key=B3
lovel=104
offset=488
sample=Toms_Large_Rim_FF_D4_RR1.opus
</region>
</group>

<group>
group_label=RR2
seq_length=4
seq_position=2

<region>
hivel=25
key=E4
lovel=0
offset=14101
sample=Toms_Small_Hit_P_D4_RR2.opus
volume=6
</region>

<region>
hivel=51
key=E4
lovel=26
offset=13887
sample=Toms_Small_Hit_MP_D4_RR2.opus
volume=6
</region>

<region>
hivel=25
key=D#4
lovel=0
offset=15218
sample=Toms_Medium_Hit_P_D4_RR2.opus
volume=6
</region>

<region>
hivel=25
key=D4
lovel=0
offset=14900
sample=Toms_Large_Hit_P_D4_RR2.opus
volume=6
</region>

<region>
hivel=51
key=D4
lovel=26
offset=539
sample=Toms_Large_Hit_MP_D4_RR2.opus
volume=6
</region>

<region>
hivel=77
key=E4
lovel=52
offset=435
sample=Toms_Small_Hit_MF_D4_RR2.opus
</region>

<region>
hivel=127
key=E4
lovel=104
offset=441
sample=Toms_Small_Hit_FF_D4_RR2.opus
</region>

<region>
hivel=103
key=E4
lovel=78
offset=564
sample=Toms_Small_Hit_F_D4_RR2.opus
</region>

<region>
hivel=51
key=D#4
lovel=26
offset=517
sample=Toms_Medium_Hit_MP_D4_RR2.opus
volume=6
</region>

<region>
hivel=77
key=D#4
lovel=52
offset=483
sample=Toms_Medium_Hit_MF_D4_RR2.opus
</region>

<region>
hivel=127
key=D#4
lovel=104
offset=449
sample=Toms_Medium_Hit_FF_D4_RR2.opus
</region>

<region>
hivel=103
key=D#4
lovel=78
offset=481
sample=Toms_Medium_Hit_F_D4_RR2.opus
</region>

<region>
hivel=77
key=D4
lovel=52
offset=572
sample=Toms_Large_Hit_MF_D4_RR2.opus
</region>

<region>
hivel=127
key=D4
lovel=104
offset=413
sample=Toms_Large_Hit_FF_D4_RR2.opus
</region>

<region>
hivel=103
key=D4
lovel=78
offset=547
sample=Toms_Large_Hit_F_D4_RR2.opus
</region>

<region>
hivel=25
key=C#4
lovel=0
offset=13696
sample=Toms_Small_Rim_P_D4_RR2.opus
volume=6
</region>

<region>
hivel=51
key=C#4
lovel=26
offset=13804
sample=Toms_Small_Rim_MP_D4_RR2.opus
volume=6
</region>

<region>
hivel=77
key=C#4
lovel=52
offset=13913
sample=Toms_Small_Rim_MF_D4_RR2.opus
</region>

<region>
hivel=127
key=C#4
lovel=104
offset=6453
sample=Toms_Small_Rim_FF_D4_RR2.opus
</region>

<region>
hivel=103
key=C#4
lovel=78
offset=13952
sample=Toms_Small_Rim_F_D4_RR2.opus
</region>

<region>
hikey=C4
hivel=25
lokey=C4
lovel=0
offset=14570
sample=Toms_Medium_Rim_P_D4_RR2.opus
volume=6
</region>

<region>
hikey=C4
hivel=51
lokey=C4
lovel=26
offset=11766
sample=Toms_Medium_Rim_MP_D4_RR2.opus
volume=6
</region>

<region>
hivel=25
key=B3
lovel=0
offset=14969
sample=Toms_Large_Rim_P_D4_RR2.opus
volume=6
</region>

<region>
hivel=51
key=B3
lovel=26
offset=13971
sample=Toms_Large_Rim_MP_D4_RR2.opus
volume=6
</region>

<region>
hivel=77
key=B3
lovel=52
offset=13915
sample=Toms_Large_Rim_MF_D4_RR2.opus
</region>

<region>
hivel=103
key=B3
lovel=78
offset=13915
sample=Toms_Large_Rim_F_D4_RR2.opus
</region>

<region>
hikey=C4
hivel=77
lokey=C4
lovel=52
offset=481
sample=Toms_Medium_Rim_MF_D4_RR2.opus
</region>

<region>
hikey=C4
hivel=127
lokey=C4
lovel=104
offset=482
sample=Toms_Medium_Rim_FF_D4_RR2.opus
</region>

<region>
hikey=C4
hivel=103
lokey=C4
lovel=78
offset=482
sample=Toms_Medium_Rim_F_D4_RR2.opus
</region>

<region>
hivel=127
key=B3
lovel=104
offset=478
sample=Toms_Large_Rim_FF_D4_RR2.opus
</region>
</group>

<group>
group_label=RR3
seq_length=4
seq_position=3

<region>
hivel=25
key=E4
lovel=0
offset=14297
sample=Toms_Small_Hit_P_D4_RR3.opus
volume=6
</region>

<region>
hivel=51
key=E4
lovel=26
offset=13503
sample=Toms_Small_Hit_MP_D4_RR3.opus
volume=6
</region>

<region>
hivel=25
key=D#4
lovel=0
offset=13000
sample=Toms_Medium_Hit_P_D4_RR3.opus
volume=6
</region>

<region>
hivel=25
key=D4
lovel=0
offset=14592
sample=Toms_Large_Hit_P_D4_RR3.opus
volume=6
</region>

<region>
hivel=51
key=D4
lovel=26
offset=539
sample=Toms_Large_Hit_MP_D4_RR3.opus
volume=6
</region>

<region>
hivel=77
key=E4
lovel=52
offset=563
sample=Toms_Small_Hit_MF_D4_RR3.opus
</region>

<region>
hivel=127
key=E4
lovel=104
offset=560
sample=Toms_Small_Hit_FF_D4_RR3.opus
</region>

<region>
hivel=103
key=E4
lovel=78
offset=570
sample=Toms_Small_Hit_F_D4_RR3.opus
</region>

<region>
hivel=51
key=D#4
lovel=26
offset=519
sample=Toms_Medium_Hit_MP_D4_RR3.opus
volume=6
</region>

<region>
hivel=77
key=D#4
lovel=52
offset=482
sample=Toms_Medium_Hit_MF_D4_RR3.opus
</region>

<region>
hivel=127
key=D#4
lovel=104
offset=562
sample=Toms_Medium_Hit_FF_D4_RR3.opus
</region>

<region>
hivel=103
key=D#4
lovel=78
offset=481
sample=Toms_Medium_Hit_F_D4_RR3.opus
</region>

<region>
hivel=77
key=D4
lovel=52
offset=562
sample=Toms_Large_Hit_MF_D4_RR3.opus
</region>

<region>
hivel=127
key=D4
lovel=104
offset=572
sample=Toms_Large_Hit_FF_D4_RR3.opus
</region>

<region>
hivel=103
key=D4
lovel=78
offset=558
sample=Toms_Large_Hit_F_D4_RR3.opus
</region>

<region>
hivel=25
key=C#4
lovel=0
offset=13979
sample=Toms_Small_Rim_P_D4_RR3.opus
volume=6
</region>

<region>
hivel=51
key=C#4
lovel=26
offset=13801
sample=Toms_Small_Rim_MP_D4_RR3.opus
volume=6
</region>

<region>
hivel=77
key=C#4
lovel=52
offset=13947
sample=Toms_Small_Rim_MF_D4_RR3.opus
</region>

<region>
hivel=127
key=C#4
lovel=104
offset=12883
sample=Toms_Small_Rim_FF_D4_RR3.opus
</region>

<region>
hivel=103
key=C#4
lovel=78
offset=13813
sample=Toms_Small_Rim_F_D4_RR3.opus
</region>

<region>
hikey=C4
hivel=25
lokey=C4
lovel=0
offset=12609
sample=Toms_Medium_Rim_P_D4_RR3.opus
volume=6
</region>

<region>
hikey=C4
hivel=51
lokey=C4
lovel=26
offset=13707
sample=Toms_Medium_Rim_MP_D4_RR3.opus
volume=6
</region>

<region>
hivel=25
key=B3
lovel=0
offset=14660
sample=Toms_Large_Rim_P_D4_RR3.opus
volume=6
</region>

<region>
hivel=51
key=B3
lovel=26
offset=13891
sample=Toms_Large_Rim_MP_D4_RR3.opus
volume=6
</region>

<region>
hivel=77
key=B3
lovel=52
offset=10430
sample=Toms_Large_Rim_MF_D4_RR3.opus
</region>

<region>
hivel=103
key=B3
lovel=78
offset=10430
sample=Toms_Large_Rim_F_D4_RR3.opus
</region>

<region>
hikey=C4
hivel=77
lokey=C4
lovel=52
offset=482
sample=Toms_Medium_Rim_MF_D4_RR3.opus
</region>

<region>
hikey=C4
hivel=127
lokey=C4
lovel=104
offset=434
sample=Toms_Medium_Rim_FF_D4_RR3.opus
</region>

<region>
hikey=C4
hivel=103
lokey=C4
lovel=78
offset=483
sample=Toms_Medium_Rim_F_D4_RR3.opus
</region>

<region>
hivel=127
key=B3
lovel=104
offset=489
sample=Toms_Large_Rim_FF_D4_RR3.opus
</region>
</group>

<group>
group_label=RR4
seq_length=4
seq_position=4

<region>
hivel=25
key=E4
lovel=0
offset=13752
sample=Toms_Small_Hit_P_D4_RR4.opus
volume=6
</region>

<region>
hivel=51
key=E4
lovel=26
offset=12651
sample=Toms_Small_Hit_MP_D4_RR4.opus
volume=6
</region>

<region>
hivel=25
key=D#4
lovel=0
offset=13149
sample=Toms_Medium_Hit_P_D4_RR4.opus
volume=6
</region>

<region>
hivel=25
key=D4
lovel=0
offset=15351
sample=Toms_Large_Hit_P_D4_RR4.opus
volume=6
</region>

<region>
hivel=51
key=D4
lovel=26
offset=416
sample=Toms_Large_Hit_MP_D4_RR4.opus
volume=6
</region>

<region>
hivel=77
key=E4
lovel=52
offset=565
sample=Toms_Small_Hit_MF_D4_RR4.opus
</region>

<region>
hivel=127
key=E4
lovel=104
offset=559
sample=Toms_Small_Hit_FF_D4_RR4.opus
</region>

<region>
hivel=103
key=E4
lovel=78
offset=571
sample=Toms_Small_Hit_F_D4_RR4.opus
</region>

<region>
hivel=51
key=D#4
lovel=26
offset=484
sample=Toms_Medium_Hit_MP_D4_RR4.opus
volume=6
</region>

<region>
hivel=77
key=D#4
lovel=52
offset=484
sample=Toms_Medium_Hit_MF_D4_RR4.opus
</region>

<region>
hivel=127
key=D#4
lovel=104
offset=336
sample=Toms_Medium_Hit_FF_D4_RR4.opus
</region>

<region>
hivel=103
key=D#4
lovel=78
offset=482
sample=Toms_Medium_Hit_F_D4_RR4.opus
</region>

<region>
hivel=77
key=D4
lovel=52
offset=573
sample=Toms_Large_Hit_MF_D4_RR4.opus
</region>

<region>
hivel=127
key=D4
lovel=104
offset=584
sample=Toms_Large_Hit_FF_D4_RR4.opus
</region>

<region>
hivel=103
key=D4
lovel=78
offset=566
sample=Toms_Large_Hit_F_D4_RR4.opus
</region>

<region>
hivel=25
key=C#4
lovel=0
offset=14414
sample=Toms_Small_Rim_P_D4_RR4.opus
volume=6
</region>

<region>
hivel=51
key=C#4
lovel=26
offset=14433
sample=Toms_Small_Rim_MP_D4_RR4.opus
volume=6
</region>

<region>
hivel=77
key=C#4
lovel=52
offset=13801
sample=Toms_Small_Rim_MF_D4_RR4.opus
</region>

<region>
hivel=127
key=C#4
lovel=104
offset=8643
sample=Toms_Small_Rim_FF_D4_RR4.opus
</region>

<region>
hivel=103
key=C#4
lovel=78
offset=13323
sample=Toms_Small_Rim_F_D4_RR4.opus
</region>

<region>
hikey=C4
hivel=25
lokey=C4
lovel=0
offset=14630
sample=Toms_Medium_Rim_P_D4_RR4.opus
volume=6
</region>

<region>
hivel=25
key=B3
lovel=0
offset=14305
sample=Toms_Large_Rim_P_D4_RR4.opus
volume=6
</region>

<region>
hivel=51
key=B3
lovel=26
offset=15212
sample=Toms_Large_Rim_MP_D4_RR4.opus
volume=6
</region>

<region>
hivel=103
key=B3
lovel=78
offset=7721
sample=Toms_Large_Rim_F_D4_RR4.opus
</region>

<region>
hikey=C4
hivel=51
lokey=C4
lovel=26
offset=433
sample=Toms_Medium_Rim_MP_D4_RR4.opus
volume=6
</region>

<region>
hikey=C4
hivel=77
lokey=C4
lovel=52
offset=482
sample=Toms_Medium_Rim_MF_D4_RR4.opus
</region>

<region>
hikey=C4
hivel=127
lokey=C4
lovel=104
offset=482
sample=Toms_Medium_Rim_FF_D4_RR4.opus
</region>

<region>
hikey=C4
hivel=103
lokey=C4
lovel=78
offset=470
sample=Toms_Medium_Rim_F_D4_RR4.opus
</region>

<region>
hivel=77
key=B3
lovel=52
offset=7716
sample=Toms_Large_Rim_MF_D4_RR4.opus
</region>

<region>
hivel=127
key=B3
lovel=104
offset=489
sample=Toms_Large_Rim_FF_D4_RR4.opus
</region>
</group>